<?xml version="1.0" encoding="UTF-8"?>
<svg version="1.1" xmlns="http://www.w3.org/2000/svg" width="442" height="354">
<path d="M0 0 C2.28609663 0.00360134 4.57219392 0.00680503 6.85829163 0.00964355 C13.03343516 0.01896398 19.20853925 0.03528461 25.38366079 0.05401397 C29.24438015 0.0656908 33.10510116 0.07634548 36.96582413 0.08675575 C47.67386032 0.11613904 58.381883 0.14771411 69.08988762 0.18697643 C71.85696278 0.19709448 74.62403797 0.20720646 77.39111328 0.21728516 C78.07873883 0.21979203 78.76636438 0.22229891 79.47482707 0.22488175 C90.64018764 0.26512292 101.80551519 0.2882419 112.97093414 0.30426379 C124.45802676 0.32101571 135.9449838 0.35304018 147.43199837 0.39914781 C153.8724171 0.42463659 160.31269816 0.44357842 166.75317001 0.44652367 C172.80263897 0.449673 178.85174873 0.47162972 184.90110588 0.50807953 C187.12025976 0.51819752 189.3394566 0.52152217 191.55862999 0.51754951 C194.5883996 0.5131648 197.61706086 0.53327415 200.646698 0.55949402 C201.5240315 0.55241572 202.40136501 0.54533742 203.30528438 0.53804463 C209.09425069 0.62347015 212.47191408 1.77192498 217.24658203 5.08520508 C221.78096027 10.38693964 222.37186912 16.20280032 222.36683655 22.90618896 C222.36811819 23.93424538 222.36811819 23.93424538 222.36942571 24.98307061 C222.37107221 27.27853529 222.36557273 29.57392682 222.36010742 31.86938477 C222.35982535 33.51527403 222.35998368 35.16116342 222.36054993 36.80705261 C222.3608371 41.2756925 222.35495323 45.7443056 222.34797597 50.21293926 C222.34172918 54.88278251 222.34113758 59.55262636 222.33995056 64.22247314 C222.33684117 73.0657129 222.32863303 81.9089403 222.31860107 90.75217462 C222.3074278 100.81978877 222.30192642 110.88740352 222.29690564 120.95502234 C222.28645011 141.66509014 222.26885822 162.37514683 222.24658203 183.08520508 C219.88150104 184.26774557 218.471425 184.21051733 215.83344173 184.21104622 C214.90000972 184.21365397 213.9665777 184.21626171 213.00485986 184.21894848 C211.97248447 184.21671776 210.94010908 184.21448704 209.87644958 184.21218872 C208.78513782 184.21374871 207.69382606 184.2153087 206.56944424 184.21691597 C202.88816095 184.22092592 199.20691841 184.21773633 195.52563477 184.21459961 C192.89645361 184.21595364 190.26727264 184.21773359 187.63809204 184.21990967 C181.2237758 184.22436521 174.80947123 184.22339189 168.39515453 184.22049703 C163.18449212 184.21824235 157.973833 184.21793075 152.76317024 184.21902084 C151.65247762 184.21925069 151.65247762 184.21925069 150.51934676 184.21948519 C149.01531656 184.2198049 147.51128636 184.22012911 146.00725616 184.22045778 C131.89165848 184.22331189 117.77606729 184.22002652 103.66047067 184.21465741 C91.53593228 184.21018851 79.41140346 184.21096615 67.28686523 184.21557617 C53.22161818 184.22092156 39.15637681 184.22303818 25.09112889 184.21996391 C23.59281194 184.21964534 22.094495 184.21933097 20.59617805 184.21902084 C19.49024792 184.21878943 19.49024792 184.21878943 18.36197577 184.21855334 C13.15414679 184.21768815 7.94632139 184.21915109 2.73849297 184.2215004 C-4.26358199 184.22458955 -11.26563849 184.22240631 -18.26771164 184.21660614 C-20.84577212 184.21527775 -23.42383411 184.21567398 -26.001894 184.2178688 C-29.50470676 184.22057719 -33.00746024 184.21720303 -36.51026917 184.21218872 C-38.06217834 184.2155348 -38.06217834 184.2155348 -39.64543921 184.21894848 C-40.57626348 184.21634074 -41.50708775 184.21373299 -42.46611881 184.21104622 C-43.68054695 184.21080269 -43.68054695 184.21080269 -44.91950899 184.21055424 C-46.75341797 184.08520508 -46.75341797 184.08520508 -47.75341797 183.08520508 C-47.8843082 180.41661834 -47.95020976 177.77264907 -47.97460938 175.10229492 C-47.98607844 174.25899187 -47.99754751 173.41568882 -48.00936413 172.54683113 C-48.0463389 169.71330641 -48.07584232 166.87975802 -48.10498047 164.04614258 C-48.12872575 162.04235558 -48.15271227 160.03857143 -48.17692566 158.03479004 C-48.2531072 151.51001029 -48.31659833 144.98513444 -48.37841797 138.46020508 C-48.38917233 137.35722328 -48.39992668 136.25424149 -48.41100693 135.117836 C-48.69859947 105.48785761 -48.8987368 75.85861894 -48.58721161 46.22815704 C-48.56597897 43.96670196 -48.55202511 41.70530843 -48.5401001 39.44378662 C-48.5168048 35.27946186 -48.45997198 31.11632198 -48.39794922 26.95239258 C-48.39353317 25.75167114 -48.38911713 24.55094971 -48.38456726 23.31384277 C-48.24302316 16.4631955 -47.44185874 11.91075808 -43.75341797 6.08520508 C-33.6036627 -3.56944018 -13.07854183 -0.04183391 0 0 Z " fill="#020202" transform="translate(135.75341796875,55.914794921875)"/>
<path d="M0 0 C2.28609663 0.00360134 4.57219392 0.00680503 6.85829163 0.00964355 C13.03343516 0.01896398 19.20853925 0.03528461 25.38366079 0.05401397 C29.24438015 0.0656908 33.10510116 0.07634548 36.96582413 0.08675575 C47.67386032 0.11613904 58.381883 0.14771411 69.08988762 0.18697643 C71.85696278 0.19709448 74.62403797 0.20720646 77.39111328 0.21728516 C78.07873883 0.21979203 78.76636438 0.22229891 79.47482707 0.22488175 C90.64018764 0.26512292 101.80551519 0.2882419 112.97093414 0.30426379 C124.45802676 0.32101571 135.9449838 0.35304018 147.43199837 0.39914781 C153.8724171 0.42463659 160.31269816 0.44357842 166.75317001 0.44652367 C172.80263897 0.449673 178.85174873 0.47162972 184.90110588 0.50807953 C187.12025976 0.51819752 189.3394566 0.52152217 191.55862999 0.51754951 C194.5883996 0.5131648 197.61706086 0.53327415 200.646698 0.55949402 C201.5240315 0.55241572 202.40136501 0.54533742 203.30528438 0.53804463 C209.09425069 0.62347015 212.47191408 1.77192498 217.24658203 5.08520508 C221.78096027 10.38693964 222.37186912 16.20280032 222.36683655 22.90618896 C222.36811819 23.93424538 222.36811819 23.93424538 222.36942571 24.98307061 C222.37107221 27.27853529 222.36557273 29.57392682 222.36010742 31.86938477 C222.35982535 33.51527403 222.35998368 35.16116342 222.36054993 36.80705261 C222.3608371 41.2756925 222.35495323 45.7443056 222.34797597 50.21293926 C222.34172918 54.88278251 222.34113758 59.55262636 222.33995056 64.22247314 C222.33684117 73.0657129 222.32863303 81.9089403 222.31860107 90.75217462 C222.3074278 100.81978877 222.30192642 110.88740352 222.29690564 120.95502234 C222.28645011 141.66509014 222.26885822 162.37514683 222.24658203 183.08520508 C219.88150104 184.26774557 218.471425 184.21051733 215.83344173 184.21104622 C214.90000972 184.21365397 213.9665777 184.21626171 213.00485986 184.21894848 C211.97248447 184.21671776 210.94010908 184.21448704 209.87644958 184.21218872 C208.78513782 184.21374871 207.69382606 184.2153087 206.56944424 184.21691597 C202.88816095 184.22092592 199.20691841 184.21773633 195.52563477 184.21459961 C192.89645361 184.21595364 190.26727264 184.21773359 187.63809204 184.21990967 C181.2237758 184.22436521 174.80947123 184.22339189 168.39515453 184.22049703 C163.18449212 184.21824235 157.973833 184.21793075 152.76317024 184.21902084 C151.65247762 184.21925069 151.65247762 184.21925069 150.51934676 184.21948519 C149.01531656 184.2198049 147.51128636 184.22012911 146.00725616 184.22045778 C131.89165848 184.22331189 117.77606729 184.22002652 103.66047067 184.21465741 C91.53593228 184.21018851 79.41140346 184.21096615 67.28686523 184.21557617 C53.22161818 184.22092156 39.15637681 184.22303818 25.09112889 184.21996391 C23.59281194 184.21964534 22.094495 184.21933097 20.59617805 184.21902084 C19.49024792 184.21878943 19.49024792 184.21878943 18.36197577 184.21855334 C13.15414679 184.21768815 7.94632139 184.21915109 2.73849297 184.2215004 C-4.26358199 184.22458955 -11.26563849 184.22240631 -18.26771164 184.21660614 C-20.84577212 184.21527775 -23.42383411 184.21567398 -26.001894 184.2178688 C-29.50470676 184.22057719 -33.00746024 184.21720303 -36.51026917 184.21218872 C-38.06217834 184.2155348 -38.06217834 184.2155348 -39.64543921 184.21894848 C-40.57626348 184.21634074 -41.50708775 184.21373299 -42.46611881 184.21104622 C-43.68054695 184.21080269 -43.68054695 184.21080269 -44.91950899 184.21055424 C-46.75341797 184.08520508 -46.75341797 184.08520508 -47.75341797 183.08520508 C-47.8843082 180.41661834 -47.95020976 177.77264907 -47.97460938 175.10229492 C-47.98607844 174.25899187 -47.99754751 173.41568882 -48.00936413 172.54683113 C-48.0463389 169.71330641 -48.07584232 166.87975802 -48.10498047 164.04614258 C-48.12872575 162.04235558 -48.15271227 160.03857143 -48.17692566 158.03479004 C-48.2531072 151.51001029 -48.31659833 144.98513444 -48.37841797 138.46020508 C-48.38917233 137.35722328 -48.39992668 136.25424149 -48.41100693 135.117836 C-48.69859947 105.48785761 -48.8987368 75.85861894 -48.58721161 46.22815704 C-48.56597897 43.96670196 -48.55202511 41.70530843 -48.5401001 39.44378662 C-48.5168048 35.27946186 -48.45997198 31.11632198 -48.39794922 26.95239258 C-48.39353317 25.75167114 -48.38911713 24.55094971 -48.38456726 23.31384277 C-48.24302316 16.4631955 -47.44185874 11.91075808 -43.75341797 6.08520508 C-33.6036627 -3.56944018 -13.07854183 -0.04183391 0 0 Z M-22.75341797 25.08520508 C-22.75341797 69.30520508 -22.75341797 113.52520508 -22.75341797 159.08520508 C49.84658203 159.08520508 122.44658203 159.08520508 197.24658203 159.08520508 C197.24658203 114.86520508 197.24658203 70.64520508 197.24658203 25.08520508 C124.64658203 25.08520508 52.04658203 25.08520508 -22.75341797 25.08520508 Z " fill="#1D3A57" transform="translate(135.75341796875,55.914794921875)"/>
<path d="M0 0 C2.10781461 0.04742765 4.21564418 0.09419352 6.32348633 0.14038086 C11.23853755 0.24932594 16.15346462 0.36273123 21.06835938 0.47851562 C31.85259996 0.73192685 42.63725421 0.9665663 53.421875 1.203125 C69.6706571 1.5600855 85.91936308 1.92024979 102.16796875 2.28515625 C103.54405682 2.31605976 103.54405682 2.31605976 104.94794464 2.34758759 C109.98613265 2.46076348 115.02431771 2.57406968 120.0625 2.6875 C120.0625 4.3375 120.0625 5.9875 120.0625 7.6875 C129.1318672 8.75654036 138.1363133 8.80580883 147.25 8.75 C148.69335781 8.74497088 150.13671733 8.74041049 151.58007812 8.73632812 C155.07425505 8.7254438 158.56836612 8.7082585 162.0625 8.6875 C162.0625 8.0275 162.0625 7.3675 162.0625 6.6875 C162.7225 6.6875 163.3825 6.6875 164.0625 6.6875 C164.0625 5.3675 164.0625 4.0475 164.0625 2.6875 C177.65251236 2.42263645 191.2425935 2.16164113 204.83276749 1.90519714 C211.1474997 1.78592603 217.46220391 1.66546506 223.77685547 1.54199219 C272.14936563 0.5978861 272.14936563 0.5978861 293.734375 0.5625 C294.43979683 0.5599118 295.14521866 0.55732361 295.87201691 0.55465698 C304.93977078 0.52778046 314.04676542 0.61435321 323.0625 1.6875 C324.96865733 3.59365733 324.32418174 6.77158698 324.375 9.3125 C324.31857459 15.48167817 323.99777419 18.92374703 320.0625 23.6875 C314.62651772 28.0825495 310.09307164 28.81223927 303.26622963 28.81334114 C302.10062055 28.81594889 300.93501148 28.81855664 299.73408091 28.82124341 C298.45773417 28.81901268 297.18138744 28.81678196 295.86636353 28.81448364 C294.49347816 28.81563596 293.12059309 28.81722423 291.74770868 28.81921089 C287.97578728 28.82338913 284.20389114 28.82132027 280.43196964 28.81822467 C276.36371755 28.81596465 272.29546985 28.81945322 268.22721863 28.82220459 C260.25720192 28.82665503 252.28719463 28.82568896 244.31717755 28.82279195 C237.83947597 28.82053476 231.36177703 28.82022677 224.88407516 28.82131577 C223.50182999 28.82154561 223.50182999 28.82154561 222.09166067 28.82178011 C220.21970746 28.82209983 218.34775425 28.82242404 216.47580104 28.8227527 C198.91493373 28.82560545 181.35407164 28.82232384 163.79320519 28.81695233 C148.72508991 28.81248597 133.65698233 28.81325925 118.58886719 28.81787109 C101.09449079 28.82322303 83.60011896 28.82532921 66.10574186 28.82225883 C64.24001336 28.82194028 62.37428486 28.82162591 60.50855637 28.82131577 C59.59056757 28.82116149 58.67257877 28.82100721 57.72677214 28.82084826 C51.25785577 28.81998486 44.78894231 28.82144223 38.3200264 28.82379532 C30.43498163 28.82660044 22.54994681 28.82584004 14.66490318 28.82051457 C10.6418163 28.81788698 6.61874601 28.81685657 2.59565926 28.82016373 C-1.08809435 28.82314612 -4.771816 28.82150144 -8.45556672 28.81618617 C-10.41757588 28.81454215 -12.37958727 28.8178023 -14.3415941 28.82124341 C-30.50775283 28.78523694 -30.50775283 28.78523694 -34.75 25 C-35.31332031 24.52175781 -35.87664063 24.04351562 -36.45703125 23.55078125 C-40.10188391 18.96346009 -40.16914063 13.96445355 -40.0625 8.3125 C-40.04445312 7.06726563 -40.02640625 5.82203125 -40.0078125 4.5390625 C-39.98460937 3.59804687 -39.96140625 2.65703125 -39.9375 1.6875 C-29.61676592 -3.47286704 -11.26547645 -0.28107121 0 0 Z " fill="#203D59" transform="translate(80.9375,250.3125)"/>
<path d="M0 0 C1.85359205 3.17573462 0.95679988 5.40744611 0.1171875 8.9140625 C-1.02393097 12.02938592 -2.36511981 15.02904927 -3.7578125 18.0390625 C-4.10972656 18.82410156 -4.46164063 19.60914062 -4.82421875 20.41796875 C-6.6322199 24.40363672 -8.52225663 28.21734293 -10.8828125 31.9140625 C-9.23584646 31.4388037 -7.59026522 30.95874359 -5.9453125 30.4765625 C-5.02878906 30.20972656 -4.11226562 29.94289062 -3.16796875 29.66796875 C-0.9425632 29.12380199 -0.9425632 29.12380199 0.1171875 27.9140625 C1.78335865 27.87342418 3.45106845 27.8713415 5.1171875 27.9140625 C4.96142394 31.96391511 4.80724141 34.20429277 1.9296875 37.1640625 C-2.46638589 39.73921334 -7.77184068 40.05370949 -12.73828125 40.71484375 C-16.15001244 41.62253236 -16.15001244 41.62253236 -17.49609375 44.92578125 C-17.81574097 45.86393677 -17.81574097 45.86393677 -18.1418457 46.82104492 C-18.98030021 49.18943716 -20.06893226 51.29504042 -21.2578125 53.5078125 C-21.68578125 54.31089844 -22.11375 55.11398438 -22.5546875 55.94140625 C-23.44010417 57.58984375 -24.32552083 59.23828125 -25.2109375 60.88671875 C-27.66574734 65.4931842 -29.88159809 70.09379993 -31.8828125 74.9140625 C-32.2746875 75.6153125 -32.6665625 76.3165625 -33.0703125 77.0390625 C-34.09918692 79.41338808 -34.02498273 81.35499832 -33.8828125 83.9140625 C-26.02348017 86.01786637 -18.43121213 86.33992021 -10.3203125 86.5390625 C-9.02544922 86.57773438 -7.73058594 86.61640625 -6.39648438 86.65625 C-3.22539674 86.74986144 -0.05430495 86.83559653 3.1171875 86.9140625 C3.1171875 86.2540625 3.1171875 85.5940625 3.1171875 84.9140625 C4.84462766 84.26362531 6.5742244 83.61891406 8.3046875 82.9765625 C9.74908203 82.43708984 9.74908203 82.43708984 11.22265625 81.88671875 C13.86554903 80.99862118 16.35711 80.30135579 19.1171875 79.9140625 C20.1171875 80.9140625 20.1171875 80.9140625 20.21484375 82.98046875 C20.20324219 83.80417969 20.19164062 84.62789063 20.1796875 85.4765625 C20.17066406 86.30285156 20.16164063 87.12914062 20.15234375 87.98046875 C20.14074219 88.61855469 20.12914062 89.25664062 20.1171875 89.9140625 C19.4778125 90.0171875 18.8384375 90.1203125 18.1796875 90.2265625 C17.4990625 90.4534375 16.8184375 90.6803125 16.1171875 90.9140625 C15.6221875 92.3990625 15.6221875 92.3990625 15.1171875 93.9140625 C-0.47127956 99.11021819 -27.20723047 98.06126154 -41.8828125 90.9140625 C-43.49462891 89.66894531 -43.49462891 89.66894531 -44.8828125 87.9140625 C-45.8190476 79.63544778 -42.28852478 72.39958541 -38.6328125 65.2265625 C-38.15457031 64.24623047 -37.67632812 63.26589844 -37.18359375 62.25585938 C-33.84164372 55.49497673 -30.06122439 49.18168034 -25.8828125 42.9140625 C-26.74003906 43.2028125 -27.59726563 43.4915625 -28.48046875 43.7890625 C-39.8371183 47.47645266 -39.8371183 47.47645266 -45.8828125 46.9140625 C-47.50230261 44.34193116 -47.92690001 43.23737091 -47.5078125 40.1640625 C-47.3015625 39.4215625 -47.0953125 38.6790625 -46.8828125 37.9140625 C-43.28981386 36.43732843 -40.26689392 35.80317361 -36.421875 35.84375 C-27.73311394 36.11029996 -27.73311394 36.11029996 -20.28857422 32.40283203 C-17.62898531 28.55244277 -16.02777443 24.29575529 -14.55126953 19.87841797 C-13.67468637 17.30245444 -12.54339843 14.87293099 -11.3828125 12.4140625 C-10.8878125 11.2590625 -10.3928125 10.1040625 -9.8828125 8.9140625 C-11.80673828 9.37619141 -11.80673828 9.37619141 -13.76953125 9.84765625 C-18.72395036 10.94874607 -23.64665541 11.51613779 -28.6953125 11.9765625 C-30.34790784 12.13145331 -32.0002649 12.28891278 -33.65234375 12.44921875 C-34.37010986 12.5150415 -35.08787598 12.58086426 -35.82739258 12.64868164 C-37.90520194 12.91695326 -39.85498638 13.39657886 -41.8828125 13.9140625 C-43.29816028 13.97863129 -44.71618939 14.00017289 -46.1328125 13.9765625 C-47.9890625 13.945625 -47.9890625 13.945625 -49.8828125 13.9140625 C-50.6328125 11.6640625 -50.6328125 11.6640625 -50.8828125 8.9140625 C-47.77772222 4.71863517 -44.71236161 4.15167364 -39.6953125 3.3515625 C-38.25908108 3.11478646 -36.8228843 2.87780022 -35.38671875 2.640625 C-34.64566895 2.52364258 -33.90461914 2.40666016 -33.14111328 2.28613281 C-30.90874168 1.91833451 -28.69233158 1.50001554 -26.47265625 1.0625 C-5.31040488 -3.06284763 -5.31040488 -3.06284763 0 0 Z " fill="#EFEFEF" transform="translate(242.8828125,102.0859375)"/>
<path d="M0 0 C2.28609663 0.00360134 4.57219392 0.00680503 6.85829163 0.00964355 C13.03343516 0.01896398 19.20853925 0.03528461 25.38366079 0.05401397 C29.24438015 0.0656908 33.10510116 0.07634548 36.96582413 0.08675575 C47.67386032 0.11613904 58.381883 0.14771411 69.08988762 0.18697643 C71.85696278 0.19709448 74.62403797 0.20720646 77.39111328 0.21728516 C78.07873883 0.21979203 78.76636438 0.22229891 79.47482707 0.22488175 C90.64018764 0.26512292 101.80551519 0.2882419 112.97093414 0.30426379 C124.45802676 0.32101571 135.9449838 0.35304018 147.43199837 0.39914781 C153.8724171 0.42463659 160.31269816 0.44357842 166.75317001 0.44652367 C172.80263897 0.449673 178.85174873 0.47162972 184.90110588 0.50807953 C187.12025976 0.51819752 189.3394566 0.52152217 191.55862999 0.51754951 C194.5883996 0.5131648 197.61706086 0.53327415 200.646698 0.55949402 C201.5240315 0.55241572 202.40136501 0.54533742 203.30528438 0.53804463 C209.09425069 0.62347015 212.47191408 1.77192498 217.24658203 5.08520508 C221.78096027 10.38693964 222.37186912 16.20280032 222.36683655 22.90618896 C222.36811819 23.93424538 222.36811819 23.93424538 222.36942571 24.98307061 C222.37107221 27.27853529 222.36557273 29.57392682 222.36010742 31.86938477 C222.35982535 33.51527403 222.35998368 35.16116342 222.36054993 36.80705261 C222.3608371 41.2756925 222.35495323 45.7443056 222.34797597 50.21293926 C222.34172918 54.88278251 222.34113758 59.55262636 222.33995056 64.22247314 C222.33684117 73.0657129 222.32863303 81.9089403 222.31860107 90.75217462 C222.3074278 100.81978877 222.30192642 110.88740352 222.29690564 120.95502234 C222.28645011 141.66509014 222.26885822 162.37514683 222.24658203 183.08520508 C219.88150104 184.26774557 218.471425 184.21051733 215.83344173 184.21104622 C214.90000972 184.21365397 213.9665777 184.21626171 213.00485986 184.21894848 C211.97248447 184.21671776 210.94010908 184.21448704 209.87644958 184.21218872 C208.78513782 184.21374871 207.69382606 184.2153087 206.56944424 184.21691597 C202.88816095 184.22092592 199.20691841 184.21773633 195.52563477 184.21459961 C192.89645361 184.21595364 190.26727264 184.21773359 187.63809204 184.21990967 C181.2237758 184.22436521 174.80947123 184.22339189 168.39515453 184.22049703 C163.18449212 184.21824235 157.973833 184.21793075 152.76317024 184.21902084 C151.65247762 184.21925069 151.65247762 184.21925069 150.51934676 184.21948519 C149.01531656 184.2198049 147.51128636 184.22012911 146.00725616 184.22045778 C131.89165848 184.22331189 117.77606729 184.22002652 103.66047067 184.21465741 C91.53593228 184.21018851 79.41140346 184.21096615 67.28686523 184.21557617 C53.22161818 184.22092156 39.15637681 184.22303818 25.09112889 184.21996391 C23.59281194 184.21964534 22.094495 184.21933097 20.59617805 184.21902084 C19.49024792 184.21878943 19.49024792 184.21878943 18.36197577 184.21855334 C13.15414679 184.21768815 7.94632139 184.21915109 2.73849297 184.2215004 C-4.26358199 184.22458955 -11.26563849 184.22240631 -18.26771164 184.21660614 C-20.84577212 184.21527775 -23.42383411 184.21567398 -26.001894 184.2178688 C-29.50470676 184.22057719 -33.00746024 184.21720303 -36.51026917 184.21218872 C-38.06217834 184.2155348 -38.06217834 184.2155348 -39.64543921 184.21894848 C-40.57626348 184.21634074 -41.50708775 184.21373299 -42.46611881 184.21104622 C-43.68054695 184.21080269 -43.68054695 184.21080269 -44.91950899 184.21055424 C-46.75341797 184.08520508 -46.75341797 184.08520508 -47.75341797 183.08520508 C-47.8843082 180.41661834 -47.95020976 177.77264907 -47.97460938 175.10229492 C-47.98607844 174.25899187 -47.99754751 173.41568882 -48.00936413 172.54683113 C-48.0463389 169.71330641 -48.07584232 166.87975802 -48.10498047 164.04614258 C-48.12872575 162.04235558 -48.15271227 160.03857143 -48.17692566 158.03479004 C-48.2531072 151.51001029 -48.31659833 144.98513444 -48.37841797 138.46020508 C-48.38917233 137.35722328 -48.39992668 136.25424149 -48.41100693 135.117836 C-48.69859947 105.48785761 -48.8987368 75.85861894 -48.58721161 46.22815704 C-48.56597897 43.96670196 -48.55202511 41.70530843 -48.5401001 39.44378662 C-48.5168048 35.27946186 -48.45997198 31.11632198 -48.39794922 26.95239258 C-48.39353317 25.75167114 -48.38911713 24.55094971 -48.38456726 23.31384277 C-48.24302316 16.4631955 -47.44185874 11.91075808 -43.75341797 6.08520508 C-33.6036627 -3.56944018 -13.07854183 -0.04183391 0 0 Z M-42.41314983 6.55084229 C-47.22328183 13.46355356 -46.41649428 21.44849466 -46.32104492 29.50708008 C-46.31951172 31.20013369 -46.32018332 32.8931905 -46.32287121 34.58624268 C-46.32399626 39.10478721 -46.29509779 43.62266462 -46.25981903 48.14105225 C-46.23126394 52.38677994 -46.22999915 56.63234848 -46.22644043 60.87817383 C-46.2002433 73.28060533 -46.13043711 85.68291372 -46.06591797 98.08520508 C-45.96279297 125.80520508 -45.85966797 153.52520508 -45.75341797 182.08520508 C42.02658203 182.08520508 129.80658203 182.08520508 220.24658203 182.08520508 C220.30845703 154.69520508 220.37033203 127.30520508 220.43408203 99.08520508 C220.46139404 90.43946289 220.48870605 81.7937207 220.5168457 72.88598633 C220.52687953 65.13025082 220.52687953 65.13025082 220.53291321 57.37451172 C220.53570608 53.92230434 220.54694024 50.47023562 220.56330872 47.01806641 C220.58392932 42.61053 220.5900475 38.20319441 220.58579886 33.79561424 C220.58668691 32.1805935 220.59261023 30.56556553 220.60422742 28.95058632 C220.76703826 17.66181144 220.76703826 17.66181144 217.24658203 7.08520508 C213.66659373 3.50521678 209.74542602 3.0055438 204.84436035 2.77446365 C203.98259941 2.73332278 203.12083847 2.69218191 202.23296356 2.64979434 C200.84074963 2.5918702 200.84074963 2.5918702 199.42041016 2.53277588 C198.44374641 2.49070235 197.46708267 2.44862883 196.46082306 2.40528035 C185.79583058 1.97880793 175.13739016 1.92948327 164.46533203 1.92407227 C162.28465698 1.91942766 160.10398271 1.9144009 157.92330933 1.9090271 C152.07728854 1.89608071 146.23127911 1.8894965 140.38524628 1.88501644 C136.72633212 1.88206374 133.06742093 1.87795562 129.4085083 1.87351227 C117.93855876 1.85990003 106.46861618 1.85019628 94.99865913 1.84631038 C81.79217653 1.8418094 68.58579638 1.82414144 55.37934494 1.79530978 C45.13345504 1.77372026 34.88759408 1.76360798 24.64168167 1.76226926 C18.53508787 1.76122163 12.42859122 1.75531932 6.32202148 1.73744965 C0.59592716 1.72101076 -5.12999634 1.71879303 -10.8561058 1.72758865 C-12.95638359 1.72836058 -15.05667045 1.72399585 -17.1569252 1.7141304 C-20.02213935 1.70145859 -22.8867435 1.70726116 -25.75195312 1.7177124 C-26.58325996 1.709656 -27.4145668 1.70159959 -28.27106476 1.69329906 C-33.90236529 1.74138736 -38.04681228 2.69511901 -42.41314983 6.55084229 Z " fill="#A5B0BC" transform="translate(135.75341796875,55.914794921875)"/>
<path d="M0 0 C2.10781461 0.04742765 4.21564418 0.09419352 6.32348633 0.14038086 C11.23853755 0.24932594 16.15346462 0.36273123 21.06835938 0.47851562 C31.85259996 0.73192685 42.63725421 0.9665663 53.421875 1.203125 C69.6706571 1.5600855 85.91936308 1.92024979 102.16796875 2.28515625 C103.54405682 2.31605976 103.54405682 2.31605976 104.94794464 2.34758759 C109.98613265 2.46076348 115.02431771 2.57406968 120.0625 2.6875 C120.0625 4.3375 120.0625 5.9875 120.0625 7.6875 C129.1318672 8.75654036 138.1363133 8.80580883 147.25 8.75 C148.69335781 8.74497088 150.13671733 8.74041049 151.58007812 8.73632812 C155.07425505 8.7254438 158.56836612 8.7082585 162.0625 8.6875 C162.0625 8.0275 162.0625 7.3675 162.0625 6.6875 C162.7225 6.6875 163.3825 6.6875 164.0625 6.6875 C164.0625 5.3675 164.0625 4.0475 164.0625 2.6875 C177.65251236 2.42263645 191.2425935 2.16164113 204.83276749 1.90519714 C211.1474997 1.78592603 217.46220391 1.66546506 223.77685547 1.54199219 C272.14936563 0.5978861 272.14936563 0.5978861 293.734375 0.5625 C294.43979683 0.5599118 295.14521866 0.55732361 295.87201691 0.55465698 C304.93977078 0.52778046 314.04676542 0.61435321 323.0625 1.6875 C324.96865733 3.59365733 324.32418174 6.77158698 324.375 9.3125 C324.33122697 15.45948427 323.89852068 18.89247415 320.0625 23.6875 C317.8125 25.625 317.8125 25.625 316.0625 26.6875 C315.4025 26.3575 314.7425 26.0275 314.0625 25.6875 C314.84625 24.965625 315.63 24.24375 316.4375 23.5 C321.91112887 17.63539764 321.31097768 12.9542455 322.0625 4.6875 C270.5825 4.6875 219.1025 4.6875 166.0625 4.6875 C166.0625 6.6675 166.0625 8.6475 166.0625 10.6875 C163.74032321 11.8485884 162.39688469 11.81423847 159.81225586 11.81689453 C158.93472153 11.82004669 158.05718719 11.82319885 157.15306091 11.82644653 C155.72958092 11.82341019 155.72958092 11.82341019 154.27734375 11.8203125 C153.30591934 11.82126923 152.33449493 11.82222595 151.33363342 11.82321167 C149.27832983 11.82389283 147.22302408 11.82204299 145.16772461 11.81787109 C142.00955411 11.8125162 138.85152546 11.81782122 135.69335938 11.82421875 C133.70052052 11.82355807 131.70768175 11.82227712 129.71484375 11.8203125 C128.76383286 11.82233673 127.81282196 11.82436096 126.83299255 11.82644653 C125.95861038 11.82329437 125.08422821 11.82014221 124.18334961 11.81689453 C123.40994736 11.81609894 122.6365451 11.81530334 121.83970642 11.81448364 C120.0625 11.6875 120.0625 11.6875 119.0625 10.6875 C119.0625 8.3775 119.0625 6.0675 119.0625 3.6875 C67.2525 4.0175 15.4425 4.3475 -37.9375 4.6875 C-38.2675 8.3175 -38.5975 11.9475 -38.9375 15.6875 C-39.2675 15.6875 -39.5975 15.6875 -39.9375 15.6875 C-39.9375 11.0675 -39.9375 6.4475 -39.9375 1.6875 C-29.61676592 -3.47286704 -11.26547645 -0.28107121 0 0 Z " fill="#E6E9EC" transform="translate(80.9375,250.3125)"/>
<path d="M0 0 C2.28609663 0.00360134 4.57219392 0.00680503 6.85829163 0.00964355 C13.03343516 0.01896398 19.20853925 0.03528461 25.38366079 0.05401397 C29.24438015 0.0656908 33.10510116 0.07634548 36.96582413 0.08675575 C47.67386032 0.11613904 58.381883 0.14771411 69.08988762 0.18697643 C71.85696278 0.19709448 74.62403797 0.20720646 77.39111328 0.21728516 C78.07873883 0.21979203 78.76636438 0.22229891 79.47482707 0.22488175 C90.64018764 0.26512292 101.80551519 0.2882419 112.97093414 0.30426379 C124.45802676 0.32101571 135.9449838 0.35304018 147.43199837 0.39914781 C153.8724171 0.42463659 160.31269816 0.44357842 166.75317001 0.44652367 C172.80263897 0.449673 178.85174873 0.47162972 184.90110588 0.50807953 C187.12025976 0.51819752 189.3394566 0.52152217 191.55862999 0.51754951 C194.5883996 0.5131648 197.61706086 0.53327415 200.646698 0.55949402 C201.5240315 0.55241572 202.40136501 0.54533742 203.30528438 0.53804463 C209.0867618 0.62335964 212.45076236 1.83208791 217.24658203 5.08520508 C217.24658203 6.07520508 217.24658203 7.06520508 217.24658203 8.08520508 C216.38033203 7.37364258 216.38033203 7.37364258 215.49658203 6.64770508 C212.09809559 4.28764505 208.91457653 3.96637011 204.84436035 3.77446365 C203.98259941 3.73332278 203.12083847 3.69218191 202.23296356 3.64979434 C200.84074963 3.5918702 200.84074963 3.5918702 199.42041016 3.53277588 C198.44374641 3.49070235 197.46708267 3.44862883 196.46082306 3.40528035 C185.79583058 2.97880793 175.13739016 2.92948327 164.46533203 2.92407227 C162.28465698 2.91942766 160.10398271 2.9144009 157.92330933 2.9090271 C152.07728854 2.89608071 146.23127911 2.8894965 140.38524628 2.88501644 C136.72633212 2.88206374 133.06742093 2.87795562 129.4085083 2.87351227 C117.93855876 2.85990003 106.46861618 2.85019628 94.99865913 2.84631038 C81.79217653 2.8418094 68.58579638 2.82414144 55.37934494 2.79530978 C45.13345504 2.77372026 34.88759408 2.76360798 24.64168167 2.76226926 C18.53508787 2.76122163 12.42859122 2.75531932 6.32202148 2.73744965 C0.59592716 2.72101076 -5.12999634 2.71879303 -10.8561058 2.72758865 C-12.95638359 2.72836058 -15.05667045 2.72399585 -17.1569252 2.7141304 C-20.02213935 2.70145859 -22.8867435 2.70726116 -25.75195312 2.7177124 C-26.58325996 2.709656 -27.4145668 2.70159959 -28.27106476 2.69329906 C-33.90785153 2.74143421 -38.27626298 3.56749651 -42.4099226 7.76882839 C-46.86405959 15.24541768 -46.46249076 23.10531189 -46.4128418 31.52880859 C-46.42130478 33.18529971 -46.43195336 34.84178087 -46.4446106 36.49824524 C-46.47265903 40.97291608 -46.47030276 45.44710593 -46.46231675 49.92183805 C-46.45918361 54.60640551 -46.48424965 59.29082196 -46.50627136 63.97532654 C-46.54366832 72.83612927 -46.55585678 81.69677854 -46.55889577 90.55765241 C-46.56359131 100.64964127 -46.59653056 110.74147686 -46.63179362 120.83339798 C-46.70366981 141.58398293 -46.74023558 162.33450526 -46.75341797 183.08520508 C-47.08341797 183.08520508 -47.41341797 183.08520508 -47.75341797 183.08520508 C-49.04891985 89.0903296 -49.04891985 89.0903296 -48.58765793 46.22771072 C-48.56597827 43.96649507 -48.55182254 41.70534744 -48.53982544 39.44406128 C-48.51651338 35.27964798 -48.459826 31.11641295 -48.39794922 26.95239258 C-48.39353821 25.75166611 -48.3891272 24.55093964 -48.38458252 23.31382751 C-48.2430068 16.46318779 -47.44185713 11.91075555 -43.75341797 6.08520508 C-33.6036627 -3.56944018 -13.07854183 -0.04183391 0 0 Z " fill="#DEE2E6" transform="translate(135.75341796875,55.914794921875)"/>
<path d="M0 0 C5.46864457 1.01591421 10.76390013 2.07091057 16 4 C16 4.66 16 5.32 16 6 C17.010625 6.12375 18.02125 6.2475 19.0625 6.375 C22.87937612 6.98085335 26.31500112 7.87193912 30 9 C30 9.99 30 10.98 30 12 C27.03 12.66 24.06 13.32 21 14 C23.08040099 17.92964632 25.52804739 20.63108889 28.79296875 23.5703125 C30 25 30 25 30 28 C29.34 28 28.68 28 28 28 C28 28.66 28 29.32 28 30 C24.37386801 29.43040847 22.74482259 28.07625466 20.25 25.4375 C19.32960938 24.47650391 19.32960938 24.47650391 18.390625 23.49609375 C17.93171875 23.00238281 17.4728125 22.50867188 17 22 C16.01 22.33 15.02 22.66 14 23 C12.77479736 26.00847418 12.77479736 26.00847418 12 29 C11.01 29 10.02 29 9 29 C8.49307308 27.4188708 7.99473557 25.83498617 7.5 24.25 C7.08234375 22.92742187 7.08234375 22.92742187 6.65625 21.578125 C6 19 6 19 6 15 C5.34 15 4.68 15 4 15 C3.32779649 13.06441401 2.66241923 11.12645628 2 9.1875 C1.62875 8.10855469 1.2575 7.02960938 0.875 5.91796875 C0 3 0 3 0 0 Z " fill="#EFEFEF" transform="translate(279,167)"/>
<path d="M0 0 C1.73527529 0.00138269 1.73527529 0.00138269 3.50560665 0.00279331 C4.1475788 0.00193889 4.78955094 0.00108446 5.45097679 0.00020415 C7.61756553 -0.00145239 9.78407806 0.0040735 11.95065975 0.00952244 C13.4975856 0.0098043 15.04451157 0.0096466 16.59143734 0.00907993 C20.80406531 0.00879191 25.01666505 0.01468934 29.22928643 0.02165389 C33.62688286 0.02788671 38.02447987 0.02849117 42.42208004 0.0296793 C50.75543011 0.03279283 59.08876714 0.04100651 67.42211145 0.05102879 C76.90683753 0.06218926 86.39156421 0.06770021 95.87629521 0.07272422 C115.39254588 0.0831891 134.90878439 0.10078896 154.42502499 0.12304783 C154.42502499 2.10304783 154.42502499 4.08304783 154.42502499 6.12304783 C153.76502499 6.12304783 153.10502499 6.12304783 152.42502499 6.12304783 C152.42502499 4.80304783 152.42502499 3.48304783 152.42502499 2.12304783 C101.27502499 2.12304783 50.12502499 2.12304783 -2.57497501 2.12304783 C-2.07108823 11.64135065 -2.07108823 11.64135065 1.42502499 19.12304783 C1.75502499 19.78304783 2.08502499 20.44304783 2.42502499 21.12304783 C-0.73613277 19.7532128 -1.56768421 19.13398403 -3.57497501 16.12304783 C-3.74328595 13.53847655 -3.80853836 11.0775951 -3.76247501 8.49804783 C-3.76183048 7.8045322 -3.76118595 7.11101658 -3.76052189 6.39648533 C-3.70585922 0.17708829 -3.70585922 0.17708829 0 0 Z " fill="#5E7287" transform="translate(45.57497501373291,253.87695217132568)"/>
<path d="M0 0 C0.71796753 -0.00249756 1.43593506 -0.00499512 2.17565918 -0.00756836 C11.43419454 -0.0343194 20.7326845 0.02031841 29.9375 1.125 C30.9375 2.125 30.9375 2.125 31.03515625 5.28515625 C31.02355469 6.57292969 31.01195312 7.86070312 31 9.1875 C30.99097656 10.47785156 30.98195313 11.76820313 30.97265625 13.09765625 C30.96105469 14.09667969 30.94945312 15.09570312 30.9375 16.125 C30.6075 16.125 30.2775 16.125 29.9375 16.125 C29.9375 11.835 29.9375 7.545 29.9375 3.125 C28.45580322 3.13023682 26.97410645 3.13547363 25.44750977 3.14086914 C-5.4063049 3.24018652 -36.22291799 3.10968774 -67.0625 2.125 C-67.0625 1.795 -67.0625 1.465 -67.0625 1.125 C-22.27414873 0.02661622 -22.27414873 0.02661622 0 0 Z " fill="#F7F8F9" transform="translate(374.0625,250.875)"/>
<path d="M0 0 C52.14 0 104.28 0 158 0 C158 16 158 16 154 21 C151.25 22.3125 151.25 22.3125 149 23 C150.23697917 21.60026042 151.47395833 20.20052083 152.7109375 18.80078125 C156.81297633 13.0703573 156.34391592 8.21692493 157 1 C105.52 1 54.04 1 1 1 C1 2.98 1 4.96 1 7 C0.67 7 0.34 7 0 7 C0 4.69 0 2.38 0 0 Z " fill="#8292A2" transform="translate(246,254)"/>
<path d="M0 0 C2.21458418 0.05008457 4.42918428 0.09946978 6.64379883 0.14819336 C11.24519431 0.2501522 15.84649277 0.35553324 20.44775391 0.46337891 C30.93260494 0.70684845 41.41823153 0.91232364 51.90380859 1.12164307 C57.12731619 1.22640449 62.35076796 1.33385557 67.57421875 1.44140625 C68.9391169 1.46946602 68.9391169 1.46946602 70.33158875 1.49809265 C72.38772646 1.5403645 74.44386334 1.58267698 76.5 1.625 C76.5 1.955 76.5 2.285 76.5 2.625 C75.94138558 2.62407821 75.38277117 2.62315641 74.80722904 2.62220669 C61.18470717 2.60007606 47.56218847 2.58361569 33.93965244 2.57318783 C27.35176993 2.56797501 20.76390042 2.56090644 14.17602539 2.54956055 C7.81532094 2.53867477 1.45462898 2.5327111 -4.90608406 2.53012276 C-7.32968403 2.52827876 -9.75328334 2.52467793 -12.17687798 2.51926994 C-15.57813861 2.51198401 -18.97934802 2.51101224 -22.38061523 2.51147461 C-23.37683899 2.50787933 -24.37306274 2.50428406 -25.3994751 2.50057983 C-31.18039115 2.50905256 -36.76570778 2.88217981 -42.5 3.625 C-42.5 2.965 -42.5 2.305 -42.5 1.625 C-31.51905525 -3.86547238 -11.90881992 -0.29666582 0 0 Z " fill="#FEFEFE" transform="translate(83.5,250.375)"/>
<path d="M0 0 C10.30973193 -0.09280984 20.61936395 -0.16382075 30.92942905 -0.20724869 C35.71718193 -0.22809533 40.50464831 -0.25635942 45.29223633 -0.30175781 C49.91528566 -0.34532005 54.53805996 -0.36915909 59.16129875 -0.37950897 C60.92231511 -0.38688175 62.68331696 -0.40127915 64.44421577 -0.42292023 C66.91699502 -0.45209283 69.38864775 -0.45595032 71.86157227 -0.45410156 C72.94591049 -0.47567322 72.94591049 -0.47567322 74.05215454 -0.49768066 C79.52015345 -0.45364341 82.55772211 1.07206344 87 4 C87 4.99 87 5.98 87 7 C86.4225 6.525625 85.845 6.05125 85.25 5.5625 C81.92802101 3.25557014 78.8268789 2.88862347 74.84716797 2.70336914 C74.02193634 2.66432968 73.19670471 2.62529022 72.34646606 2.58506775 C71.44580414 2.54797195 70.54514221 2.51087616 69.6171875 2.47265625 C68.18027054 2.41066795 68.18027054 2.41066795 66.71432495 2.34742737 C53.52367938 1.81491908 40.32391346 1.64190795 27.125 1.4375 C24.47916189 1.39417083 21.8333285 1.35055276 19.1875 1.30664062 C12.79171702 1.20110716 6.39588575 1.0990991 0 1 C0 0.67 0 0.34 0 0 Z " fill="#AFB9C4" transform="translate(266,57)"/>
<path d="M0 0 C17.49 0 34.98 0 53 0 C53 0.33 53 0.66 53 1 C35.84 1 18.68 1 1 1 C1.50388679 10.51830282 1.50388679 10.51830282 5 18 C5.33 18.66 5.66 19.32 6 20 C2.83884224 18.63016497 2.0072908 18.0109362 0 15 C0 10.05 0 5.1 0 0 Z " fill="#314B66" transform="translate(42,255)"/>
<path d="M0 0 C8.91 0 17.82 0 27 0 C27.12375 3.8053125 27.12375 3.8053125 27.25 7.6875 C27.28641602 8.47729248 27.32283203 9.26708496 27.36035156 10.08081055 C27.4196901 13.86555661 27.22717909 15.63805365 25.15625 18.9375 C22.86146664 21.13251017 21.01779232 22.07789679 18 23 C19.23697917 21.60026042 20.47395833 20.20052083 21.7109375 18.80078125 C25.81297633 13.0703573 25.34391592 8.21692493 26 1 C17.42 1 8.84 1 0 1 C0 0.67 0 0.34 0 0 Z " fill="#9EAAB7" transform="translate(377,254)"/>
<path d="M0 0 C0 0.33 0 0.66 0 1 C-1.62808594 1.05607422 -1.62808594 1.05607422 -3.2890625 1.11328125 C-4.73440739 1.17897875 -6.17971839 1.24542476 -7.625 1.3125 C-8.33785156 1.33505859 -9.05070312 1.35761719 -9.78515625 1.38085938 C-14.50101145 1.61881537 -17.93240363 2.38511662 -22 5 C-23.50560748 6.74450338 -23.50560748 6.74450338 -24.375 8.6875 C-24.91125 9.780625 -25.4475 10.87375 -26 12 C-26.8125 10.375 -26.8125 10.375 -27 8 C-24.05046634 3.6624505 -22.06884317 1.60259562 -17 0 C-14.82199939 -0.30657291 -12.63149724 -0.53242024 -10.4375 -0.6875 C-9.32246094 -0.77386719 -8.20742187 -0.86023437 -7.05859375 -0.94921875 C-4.4189295 -0.99304459 -2.48703278 -0.80874171 0 0 Z " fill="#C9D0D7" transform="translate(117,57)"/>
<path d="M0 0 C0.86625 0.37125 0.86625 0.37125 1.75 0.75 C0.76 0.75 -0.23 0.75 -1.25 0.75 C-1.91 2.73 -2.57 4.71 -3.25 6.75 C-0.28 7.245 -0.28 7.245 2.75 7.75 C2.75 8.08 2.75 8.41 2.75 8.75 C0.11 8.75 -2.53 8.75 -5.25 8.75 C-6 6.5 -6 6.5 -6.25 3.75 C-3.32317073 -0.36924119 -3.32317073 -0.36924119 0 0 Z " fill="#A3A3A3" transform="translate(198.25,107.25)"/>
<path d="M0 0 C-1.134375 0.391875 -2.26875 0.78375 -3.4375 1.1875 C-7.16642384 2.58729153 -7.16642384 2.58729153 -8 5.5625 C-8.18168052 8.00931695 -8.18168052 8.00931695 -7 10 C-7.99 9.67 -8.98 9.34 -10 9 C-10.33 6.69 -10.66 4.38 -11 2 C-3.57142857 -1.57142857 -3.57142857 -1.57142857 0 0 Z " fill="#A4A4A4" transform="translate(206,139)"/>
<path d="M0 0 C2.97 0.495 2.97 0.495 6 1 C4.68 1.33 3.36 1.66 2 2 C2.22816406 2.60328125 2.45632813 3.2065625 2.69140625 3.828125 C2.97886719 4.62734375 3.26632812 5.4265625 3.5625 6.25 C3.85253906 7.03890625 4.14257812 7.8278125 4.44140625 8.640625 C5.04522837 11.19103452 4.8473932 12.55322229 4 15 C3.32779649 13.06441401 2.66241923 11.12645628 2 9.1875 C1.62875 8.10855469 1.2575 7.02960938 0.875 5.91796875 C0 3 0 3 0 0 Z " fill="#8D8D8D" transform="translate(279,167)"/>
<path d="M0 0 C0.99 0.33 1.98 0.66 3 1 C2.34 1 1.68 1 1 1 C1 3.31 1 5.62 1 8 C-0.65 8 -2.3 8 -4 8 C-3.34 6.68 -2.68 5.36 -2 4 C-1.34 4 -0.68 4 0 4 C0 2.68 0 1.36 0 0 Z " fill="#F4F5F7" transform="translate(245,253)"/>
<path d="M0 0 C2.96865509 2.54456151 4.3619751 5.48994665 6 9 C2.83884224 7.63016497 2.0072908 7.0109362 0 4 C0 2.68 0 1.36 0 0 Z " fill="#CAD0D7" transform="translate(42,266)"/>
<path d="" fill="#FFFFFF" transform="translate(0,0)"/>
</svg>
